<svg width="106" height="21" viewBox="0 0 106 21" fill="none" xmlns="http://www.w3.org/2000/svg">
<path d="M13.5068 15.9118H11.7718L9.44376 9.41764L9.11432 8.48034L8.76293 7.47609C8.60187 7.02976 8.45546 6.70244 8.32368 6.49415C8.20655 6.28587 8.05282 6.15197 7.86248 6.09245C7.68678 6.03294 7.43055 6.00319 7.0938 6.00319V5.19979H12.233V6.00319C11.823 6.00319 11.5448 6.04038 11.3984 6.11477C11.252 6.18916 11.1788 6.31562 11.1788 6.49415C11.1788 6.62806 11.1934 6.76939 11.2227 6.91817C11.2666 7.06695 11.3179 7.23061 11.3764 7.40914L13.0236 11.8502L13.4189 13.1222H13.5727L13.9899 11.8502L15.6371 7.27524C15.6664 7.17109 15.6957 7.06695 15.725 6.9628C15.7542 6.84378 15.7689 6.70244 15.7689 6.53879C15.7689 6.3305 15.6444 6.18916 15.3955 6.11477C15.1613 6.04038 14.8318 6.00319 14.4072 6.00319V5.19979H18.602V6.00319C18.192 6.00319 17.8626 6.09989 17.6137 6.2933C17.3794 6.48672 17.1598 6.85122 16.9548 7.38682L13.5068 15.9118ZM6.87418 15.9118H5.18309L1.75698 7.47609C1.58128 7.05951 1.42022 6.74708 1.27381 6.53879C1.14204 6.31562 0.973659 6.17428 0.768678 6.11477C0.578339 6.04038 0.322113 6.00319 0 6.00319V5.19979H5.49056V6.00319C5.06595 6.00319 4.77312 6.04038 4.61207 6.11477C4.46565 6.18916 4.39245 6.31562 4.39245 6.49415C4.39245 6.65781 4.41441 6.80659 4.45833 6.94049C4.50226 7.05951 4.5535 7.20829 4.61207 7.38682L6.41297 11.8502L6.80829 13.1222H6.98399L7.4452 11.8502L9.11432 7.85547L9.883 9.73007H9.46572L6.87418 15.9118Z" fill="#211E1B"/>
<path d="M21.3231 15.9787C20.5032 15.9787 19.8443 15.763 19.3465 15.3316C18.8633 14.9001 18.6217 14.2678 18.6217 13.4346C18.6217 12.8247 18.7535 12.3114 19.0171 11.8948C19.2806 11.4782 19.6247 11.1286 20.0493 10.8459C20.4885 10.5632 20.9644 10.3252 21.4768 10.1318C22.0039 9.93836 22.5164 9.77471 23.0142 9.64081C23.5266 9.50691 23.9805 9.38045 24.3758 9.26142V8.23486C24.3758 7.2678 24.2514 6.62062 24.0025 6.2933C23.7682 5.96599 23.3656 5.80234 22.7946 5.80234C22.2821 5.80234 21.9454 5.92136 21.7843 6.1594C21.6232 6.38257 21.5427 6.81403 21.5427 7.45377C21.5427 7.90011 21.4183 8.22742 21.1694 8.43571C20.9205 8.644 20.6203 8.74814 20.2689 8.74814C19.9907 8.74814 19.7198 8.63656 19.4563 8.41339C19.2074 8.19022 19.0829 7.85547 19.0829 7.40914C19.0829 6.96281 19.244 6.55367 19.5661 6.18172C19.9029 5.80978 20.3714 5.50478 20.9717 5.26674C21.5866 5.02869 22.3041 4.90967 23.124 4.90967C24.4417 4.90967 25.4227 5.18491 26.0669 5.73539C26.7112 6.28587 27.0333 7.16366 27.0333 8.36876V13.3007C27.0333 13.7471 27.0845 14.0372 27.187 14.1711C27.3041 14.305 27.4798 14.3719 27.7141 14.3719C27.8898 14.3719 28.0655 14.3199 28.2412 14.2157C28.4315 14.0967 28.5999 13.9554 28.7463 13.7917L29.1856 14.238C28.8195 14.7736 28.4315 15.1902 28.0216 15.4878C27.6263 15.7853 27.0626 15.9341 26.3305 15.9341C25.6423 15.9341 25.1811 15.8002 24.9469 15.5324C24.7272 15.2646 24.5808 14.8332 24.5076 14.238L24.3758 13.8587V10.0871C23.7755 10.2657 23.2411 10.4591 22.7726 10.6674C22.3187 10.8757 21.96 11.1509 21.6964 11.4931C21.4475 11.8204 21.3231 12.2742 21.3231 12.8544C21.3231 13.4049 21.4256 13.8215 21.6306 14.1041C21.8502 14.3719 22.1503 14.5058 22.531 14.5058C22.8824 14.5058 23.2118 14.424 23.5193 14.2604C23.8414 14.0967 24.2001 13.814 24.5955 13.4123L24.7492 14.5058H24.4417C24.105 14.8034 23.7902 15.0638 23.4974 15.2869C23.2045 15.5101 22.8897 15.6812 22.553 15.8002C22.2309 15.9192 21.8209 15.9787 21.3231 15.9787Z" fill="#211E1B"/>
<path d="M35.9448 15.7556H29.5538V14.9522C30.0369 14.9522 30.3883 14.915 30.608 14.8406C30.8422 14.7513 30.996 14.5951 31.0692 14.3719C31.1424 14.1488 31.179 13.8289 31.179 13.4123V7.69926C31.179 7.29756 31.1277 6.99256 31.0252 6.78427C30.9374 6.57598 30.6958 6.47184 30.3005 6.47184C30.0809 6.47184 29.9125 6.47928 29.7954 6.49415C29.6782 6.50903 29.6197 6.51647 29.6197 6.51647V5.69075L32.8042 4.99894H33.7925V7.31987H33.8584C34.2537 6.78427 34.5831 6.33794 34.8467 5.98087C35.1102 5.60893 35.3811 5.33369 35.6593 5.15515C35.9521 4.96174 36.3108 4.86504 36.7354 4.86504C37.2479 4.86504 37.6286 5.01381 37.8775 5.31137C38.141 5.59405 38.2728 5.98087 38.2728 6.47184C38.2728 7.03719 38.1483 7.44633 37.8994 7.69926C37.6505 7.9373 37.3723 8.05632 37.0649 8.05632C36.772 8.05632 36.5158 7.98937 36.2962 7.85547C36.0912 7.70669 35.9155 7.55792 35.7691 7.40914C35.6227 7.26036 35.4982 7.18597 35.3957 7.18597C35.1468 7.18597 34.8833 7.31987 34.6051 7.58767C34.3415 7.8406 34.0853 8.14559 33.8364 8.50266V13.2784C33.8364 13.7545 33.9023 14.1116 34.0341 14.3496C34.1658 14.5877 34.3855 14.7513 34.6929 14.8406C35.0004 14.915 35.4177 14.9522 35.9448 14.9522V15.7556Z" fill="#211E1B"/>
<path d="M41.6951 0H42.6615V6.80659H42.7273C43.108 6.34538 43.5692 5.92136 44.111 5.53454C44.6673 5.13284 45.3262 4.93199 46.0876 4.93199C46.8636 4.93199 47.5224 5.13284 48.0642 5.53454C48.6059 5.92136 49.0232 6.47928 49.316 7.20829C49.6088 7.9373 49.7553 8.82253 49.7553 9.86397C49.7553 11.2625 49.5063 12.4155 49.0085 13.3231C48.5254 14.2157 47.8519 14.8852 46.988 15.3316C46.1242 15.7779 45.1212 16.0011 43.9792 16.0011C42.9543 16.0011 42.1051 15.8895 41.4316 15.6663C40.7727 15.4283 40.2969 15.2349 40.004 15.0861V2.74495C40.004 2.23911 39.9455 1.91923 39.8283 1.78533C39.7258 1.63656 39.4696 1.56217 39.0597 1.56217C38.8693 1.56217 38.7156 1.56961 38.5984 1.58448C38.4813 1.59936 38.4227 1.6068 38.4227 1.6068V0.781084L41.6951 0ZM42.6615 7.98937V13.9033C42.8225 14.1562 43.0568 14.3943 43.3642 14.6174C43.6717 14.8257 44.0597 14.9299 44.5282 14.9299C45.1139 14.9299 45.5751 14.7365 45.9119 14.3496C46.2486 13.9628 46.4902 13.4346 46.6366 12.7651C46.7977 12.0956 46.8782 11.3443 46.8782 10.5112C46.8782 9.76727 46.8123 9.12008 46.6805 8.56961C46.5634 8.00425 46.3584 7.57279 46.0656 7.27524C45.7728 6.96281 45.3701 6.80659 44.8577 6.80659C44.3599 6.80659 43.9133 6.94793 43.518 7.23061C43.1373 7.51328 42.8518 7.76621 42.6615 7.98937Z" fill="#211E1B"/>
<path d="M57.3923 15.7556H51.0013V14.9522C51.4844 14.9522 51.8358 14.915 52.0555 14.8406C52.2897 14.7513 52.4435 14.5951 52.5167 14.3719C52.5899 14.1488 52.6265 13.8289 52.6265 13.4123V7.69926C52.6265 7.29756 52.5752 6.99256 52.4727 6.78427C52.3849 6.57598 52.1433 6.47184 51.748 6.47184C51.5284 6.47184 51.36 6.47928 51.2429 6.49415C51.1257 6.50903 51.0672 6.51647 51.0672 6.51647V5.69075L54.2517 4.99894H55.24V7.31987H55.3059C55.7012 6.78427 56.0306 6.33794 56.2942 5.98087C56.5577 5.60893 56.8286 5.33369 57.1068 5.15515C57.3996 4.96174 57.7583 4.86504 58.1829 4.86504C58.6954 4.86504 59.076 5.01381 59.325 5.31137C59.5885 5.59405 59.7203 5.98087 59.7203 6.47184C59.7203 7.03719 59.5958 7.44633 59.3469 7.69926C59.098 7.9373 58.8198 8.05632 58.5123 8.05632C58.2195 8.05632 57.9633 7.98937 57.7437 7.85547C57.5387 7.70669 57.363 7.55792 57.2166 7.40914C57.0702 7.26036 56.9457 7.18597 56.8432 7.18597C56.5943 7.18597 56.3308 7.31987 56.0526 7.58767C55.789 7.8406 55.5328 8.14559 55.2839 8.50266V13.2784C55.2839 13.7545 55.3498 14.1116 55.4816 14.3496C55.6133 14.5877 55.833 14.7513 56.1404 14.8406C56.4479 14.915 56.8652 14.9522 57.3923 14.9522V15.7556Z" fill="#211E1B"/>
<path d="M66.2393 15.7556H60.3095V14.9522C60.8073 14.9522 61.166 14.915 61.3856 14.8406C61.6052 14.7513 61.7517 14.5877 61.8249 14.3496C61.8981 14.1116 61.9347 13.7843 61.9347 13.3677V7.47609C61.9347 6.98512 61.8395 6.68757 61.6492 6.58342C61.4588 6.4644 61.2026 6.40489 60.8805 6.40489C60.7341 6.40489 60.6023 6.41233 60.4852 6.4272C60.368 6.44208 60.3095 6.44952 60.3095 6.44952V5.6238L63.4062 4.99894H64.5921V13.3231C64.5921 13.7545 64.6287 14.0893 64.7019 14.3273C64.7751 14.5654 64.9289 14.729 65.1631 14.8183C65.3974 14.9075 65.7561 14.9522 66.2393 14.9522V15.7556ZM63.2305 3.45909C62.7473 3.45909 62.3593 3.31775 62.0665 3.03507C61.7883 2.73751 61.6492 2.35813 61.6492 1.89692C61.6492 1.45058 61.7883 1.07864 62.0665 0.781084C62.3446 0.483528 62.7326 0.33475 63.2305 0.33475C63.7429 0.33475 64.1309 0.483528 64.3945 0.781084C64.6726 1.06376 64.8117 1.43571 64.8117 1.89692C64.8117 2.35813 64.6726 2.73751 64.3945 3.03507C64.1309 3.31775 63.7429 3.45909 63.2305 3.45909Z" fill="#211E1B"/>
<path d="M71.1473 15.9564C70.3274 15.9564 69.6319 15.7258 69.0609 15.2646C68.5045 14.8034 68.0872 14.186 67.8091 13.4123C67.5309 12.6387 67.3918 11.7758 67.3918 10.8236C67.3918 9.49947 67.6187 8.40595 68.0726 7.54304C68.5265 6.66525 69.1268 6.01063 69.8735 5.57917C70.6349 5.14772 71.4768 4.93199 72.3992 4.93199C72.7506 4.93199 73.102 4.97662 73.4534 5.06589C73.8047 5.14028 74.1561 5.26674 74.5075 5.44527H74.5734V2.74495C74.5734 2.25398 74.5149 1.94155 74.3977 1.80765C74.2952 1.65887 74.0317 1.58448 73.6071 1.58448C73.5046 1.58448 73.3728 1.59192 73.2118 1.6068C73.0654 1.6068 72.9921 1.6068 72.9921 1.6068V0.781084L76.2426 0H77.2309V13.2784C77.2309 13.8438 77.3187 14.2157 77.4944 14.3943C77.6701 14.5579 77.9629 14.6397 78.3729 14.6397H78.8341V15.4431L75.2982 15.8672H74.6393V14.3943H74.5515C74.1415 14.7662 73.651 15.1233 73.08 15.4655C72.5236 15.7928 71.8794 15.9564 71.1473 15.9564ZM72.4211 14.1934C72.875 14.1934 73.2557 14.1265 73.5632 13.9926C73.8706 13.8438 74.2074 13.6429 74.5734 13.39V7.81084C74.4856 7.37938 74.2806 6.98512 73.9585 6.62806C73.6364 6.27099 73.1605 6.09245 72.5309 6.09245C71.8428 6.09245 71.2864 6.41977 70.8618 7.07439C70.4518 7.71413 70.2469 8.71838 70.2469 10.0871C70.2469 11.5303 70.4299 12.5792 70.7959 13.2338C71.162 13.8735 71.7037 14.1934 72.4211 14.1934Z" fill="#211E1B"/>
<path d="M83.5398 21C82.5589 21 81.7829 20.8884 81.2119 20.6652C80.6555 20.457 80.2602 20.1668 80.0259 19.7949C79.8063 19.4378 79.6965 19.0436 79.6965 18.6121C79.6965 18.2104 79.8356 17.831 80.1137 17.474C80.3919 17.1169 80.8165 16.6929 81.3876 16.2019V15.9118L82.2441 16.1573C82.083 16.44 81.9439 16.7301 81.8268 17.0276C81.7243 17.3401 81.6731 17.6451 81.6731 17.9426C81.6731 18.4931 81.9293 18.9022 82.4417 19.17C82.9688 19.4527 83.8034 19.594 84.9454 19.594C85.7946 19.594 86.4535 19.5048 86.922 19.3262C87.3906 19.1626 87.72 18.9394 87.9103 18.6567C88.1007 18.3889 88.1958 18.1063 88.1958 17.8087C88.1958 17.4665 88.0934 17.1987 87.8884 17.0053C87.698 16.8119 87.4345 16.6706 87.0977 16.5813C86.761 16.492 86.3949 16.4325 85.9996 16.4028C85.6043 16.3879 85.209 16.3804 84.8137 16.3804C84.1694 16.3656 83.6643 16.3581 83.2983 16.3581C82.9469 16.3581 82.676 16.3507 82.4857 16.3358C82.31 16.3358 82.1709 16.3358 82.0684 16.3358L81.5193 16.1573C81.3729 16.1126 81.1753 16.0308 80.9263 15.9118C80.6921 15.7928 80.4798 15.6142 80.2894 15.3762C80.0991 15.1233 80.0039 14.796 80.0039 14.3943C80.0039 14.0074 80.0845 13.6652 80.2455 13.3677C80.4212 13.0553 80.6482 12.7651 80.9263 12.4973C81.2192 12.2295 81.534 11.9543 81.8707 11.6716V11.3592L82.7712 11.8055C82.654 11.9543 82.5442 12.118 82.4417 12.2965C82.3539 12.4601 82.288 12.6238 82.2441 12.7875C82.2001 12.9511 82.1782 13.1073 82.1782 13.2561C82.1782 13.4495 82.2368 13.6057 82.3539 13.7248C82.4857 13.8289 82.7492 13.9107 83.1445 13.9702C83.5398 14.0149 84.1401 14.0372 84.9454 14.0372C86.0582 14.0521 86.9952 14.1265 87.7566 14.2604C88.518 14.3943 89.089 14.6621 89.4697 15.0638C89.865 15.4506 90.0626 16.0383 90.0626 16.8268C90.0626 17.6153 89.8577 18.2774 89.4477 18.813C89.0377 19.3486 88.5033 19.7726 87.8445 20.085C87.1856 20.4123 86.4755 20.6429 85.7141 20.7768C84.9528 20.9256 84.228 21 83.5398 21ZM84.6599 12.3634C84.25 12.3634 83.862 12.3262 83.4959 12.2519C83.1299 12.1775 82.7712 12.0659 82.4198 11.9171L82.0025 11.6493C81.7243 11.4857 81.4461 11.2922 81.1679 11.0691C80.8897 10.831 80.6555 10.5186 80.4651 10.1318C80.2894 9.74495 80.2016 9.24655 80.2016 8.63656C80.2016 7.8034 80.4066 7.11902 80.8165 6.58342C81.2265 6.04782 81.7609 5.64612 82.4198 5.37832C83.0933 5.11052 83.8034 4.97662 84.5501 4.97662C84.9747 4.97662 85.414 5.01381 85.8678 5.0882C86.3364 5.14771 86.7829 5.24442 87.2075 5.37832C87.6321 5.51222 87.9835 5.67588 88.2617 5.86929V6.73964C88.4081 6.94793 88.5546 7.22317 88.701 7.56536C88.862 7.90755 88.9426 8.36876 88.9426 8.94899C88.9426 9.73751 88.7376 10.3847 88.3276 10.8905C87.9323 11.3964 87.4125 11.7683 86.7683 12.0064C86.1241 12.2444 85.4213 12.3634 84.6599 12.3634ZM84.6599 11.4038C85.1431 11.4038 85.5384 11.2253 85.8459 10.8682C86.168 10.4963 86.3291 9.79702 86.3291 8.77046C86.3291 7.83316 86.1607 7.1339 85.8239 6.67269C85.5018 6.21148 85.0479 5.98087 84.4623 5.98087C83.9645 5.98087 83.5545 6.17428 83.2324 6.5611C82.9249 6.94793 82.7712 7.60999 82.7712 8.54729C82.7712 9.51435 82.9395 10.2359 83.2763 10.712C83.6131 11.1732 84.0743 11.4038 84.6599 11.4038ZM90.3262 5.356V6.67269L87.9323 6.65037L87.2075 5.42295L90.3262 5.356Z" fill="#211E1B"/>
<path d="M96.2247 16.0011C95.2145 16.0011 94.3433 15.7928 93.6112 15.3762C92.8938 14.9447 92.3374 14.3199 91.9421 13.5016C91.5468 12.6833 91.3491 11.6865 91.3491 10.5112C91.3491 9.23167 91.5761 8.18278 92.03 7.36451C92.4838 6.54623 93.0915 5.93624 93.8528 5.53454C94.6288 5.13284 95.4707 4.93199 96.3785 4.93199C97.6962 4.93199 98.7577 5.36344 99.563 6.22635C100.368 7.07439 100.786 8.31668 100.815 9.95324H93.8089L93.7869 8.97131H97.8719C97.8719 8.39107 97.806 7.87035 97.6743 7.40914C97.5571 6.93305 97.3668 6.5611 97.1032 6.2933C96.8543 6.0255 96.5103 5.8916 96.071 5.8916C95.3243 5.8916 94.7899 6.20404 94.4678 6.82891C94.1603 7.45377 94.0066 8.40595 94.0066 9.68544C94.0066 10.6823 94.1383 11.4857 94.4019 12.0956C94.6654 12.7056 95.0315 13.152 95.5 13.4346C95.9685 13.7173 96.5176 13.8587 97.1472 13.8587C97.7328 13.8587 98.216 13.7917 98.5967 13.6578C98.992 13.5239 99.3287 13.3379 99.6069 13.0999C99.8998 12.847 100.163 12.5717 100.398 12.2742L100.925 12.6312C100.705 13.0627 100.463 13.4793 100.2 13.881C99.951 14.2827 99.6509 14.6397 99.2995 14.9522C98.9627 15.2646 98.5454 15.5175 98.0476 15.7109C97.5498 15.9044 96.9422 16.0011 96.2247 16.0011Z" fill="#211E1B"/>
<path d="M104.419 15.9564C103.906 15.9564 103.518 15.8151 103.255 15.5324C102.991 15.2349 102.859 14.8629 102.859 14.4166C102.859 13.9405 102.991 13.5611 103.255 13.2784C103.533 12.9809 103.928 12.8321 104.441 12.8321C104.938 12.8321 105.319 12.9809 105.583 13.2784C105.861 13.576 106 13.9554 106 14.4166C106 14.8629 105.861 15.2349 105.583 15.5324C105.319 15.8151 104.931 15.9564 104.419 15.9564Z" fill="#211E1B"/>
</svg>
